<?xml version="1.0" encoding="iso-8859-1"?>
<!-- Generator: Adobe Illustrator 16.0.0, SVG Export Plug-In . SVG Version: 6.00 Build 0)  -->
<!DOCTYPE svg PUBLIC "-//W3C//DTD SVG 1.1//EN" "http://www.w3.org/Graphics/SVG/1.1/DTD/svg11.dtd">
<svg version="1.1" id="Capa_1" xmlns="http://www.w3.org/2000/svg" xmlns:xlink="http://www.w3.org/1999/xlink" x="0px" y="0px"
	 width="278.943px" height="278.943px" viewBox="0 0 278.943 278.943" style="enable-background:new 0 0 278.943 278.943;"
	 xml:space="preserve">
<g>
	<path d="M217.006,166.05c-0.257-0.1-0.524-0.078-0.784-0.127l-5.973-50.486V83.943c0-2.974-2.399-5.376-5.376-5.376h-31.805
		c-2.971,0-5.376,2.402-5.376,5.376v26.431h-4.032V83.943c0-2.974-2.404-5.376-5.376-5.376h-10.53V60.521
		c3.875,0.968,7.907,1.502,12.237,1.502c8.608-0.005,17.051-1.883,25.213-3.699c7.952-1.769,15.465-3.446,22.887-3.446
		c5.687,0,10.73,1.016,15.423,3.108c1.665,0.735,3.581,0.574,5.108-0.405c1.527-0.995,2.446-2.687,2.446-4.509V8.945
		c0-2.124-1.244-4.047-3.191-4.914C221.783,1.323,215.305,0,208.082,0c-8.604,0-17.05,1.882-25.207,3.698
		c-7.948,1.77-15.459,3.446-22.889,3.446c-5.689,0-10.733-1.016-15.428-3.107c-0.021-0.011-0.037-0.011-0.058-0.016
		c-0.052-0.027-0.109-0.032-0.161-0.053c-0.563-0.215-1.135-0.323-1.724-0.346c-0.084-0.005-0.151-0.048-0.24-0.048
		c-0.059,0-0.111,0.031-0.152,0.031c-0.61,0.022-1.213,0.137-1.788,0.357c-0.129,0.053-0.247,0.115-0.37,0.181
		c-0.205,0.102-0.421,0.168-0.613,0.296c-0.263,0.165-0.478,0.38-0.698,0.591c-0.077,0.066-0.149,0.113-0.221,0.184
		c-0.426,0.435-0.754,0.939-1.006,1.482c-0.06,0.124-0.102,0.252-0.145,0.375c-0.221,0.594-0.378,1.221-0.378,1.872v44.126v25.491
		h-10.525c-2.971,0-5.375,2.402-5.375,5.375v26.431h-5.149V83.943c0-2.974-2.402-5.376-5.375-5.376H78.768
		c-1.427,0-2.795,0.565-3.801,1.575c-1.005,1.01-1.575,2.376-1.575,3.801l0.006,31.515l-5.187,48.429
		c-0.081,0.021-0.149,0-0.226,0.026c-35.278,11.701-55.507,30.719-55.507,52.18c0,35.245,55.781,62.851,126.994,62.851
		c71.213,0,126.993-27.613,126.993-62.851C266.465,196.097,248.439,177.86,217.006,166.05z M64.024,219.682
		c1.021,1.14,2.473,1.786,3.998,1.786h148.721c1.538,0,3.002-0.656,4.016-1.807c1.023-1.148,1.501-2.676,1.322-4.199l-1.213-10.22
		c3.276,3.013,5.933,6.708,5.933,10.855c0,15.044-35.87,31.807-87.334,31.807c-51.463,0-87.335-16.763-87.335-31.807
		c0-5.228,4.302-10.604,12.14-15.48l-1.596,14.901C62.513,217.037,63.001,218.549,64.024,219.682z"/>
</g>
<g>
</g>
<g>
</g>
<g>
</g>
<g>
</g>
<g>
</g>
<g>
</g>
<g>
</g>
<g>
</g>
<g>
</g>
<g>
</g>
<g>
</g>
<g>
</g>
<g>
</g>
<g>
</g>
<g>
</g>
</svg>
