<?xml version="1.0" encoding="iso-8859-1"?>
<!-- Generator: Adobe Illustrator 16.0.0, SVG Export Plug-In . SVG Version: 6.00 Build 0)  -->
<!DOCTYPE svg PUBLIC "-//W3C//DTD SVG 1.1//EN" "http://www.w3.org/Graphics/SVG/1.1/DTD/svg11.dtd">
<svg version="1.1" id="Capa_1" xmlns="http://www.w3.org/2000/svg" xmlns:xlink="http://www.w3.org/1999/xlink" x="0px" y="0px"
	 width="576.3px" height="576.3px" viewBox="0 0 576.3 576.3" style="enable-background:new 0 0 576.3 576.3;" xml:space="preserve"
	>
<g>
	<g id="Layer_1_5_">
		<path d="M523.926,335.325h-10.2c-6.375,0-10.2,5.1-10.2,10.199v15.301h-24.225v-15.301c0-6.375-5.1-10.199-10.2-10.199h-10.2
			c-6.375,0-10.199,5.1-10.199,10.199v15.301h-26.775v-15.301c0-6.375-5.1-10.199-10.2-10.199h-21.675v-73.95h24.225
			c5.101,0,10.2-2.55,11.476-7.65c2.55-5.1,1.274-10.2-2.55-14.025l-122.4-119.85c-1.275-1.275-3.825-2.55-6.375-3.825V68.85h85.425
			c7.65,0,12.75-6.375,12.75-12.75V20.4c0-7.65-6.375-12.75-12.75-12.75h-85.425V5.1c0-2.55-2.55-5.1-5.1-5.1h-3.825
			c-2.55,0-5.1,2.55-5.1,5.1v110.925c-2.55,1.275-3.825,2.55-5.1,3.825L155.451,239.7c-3.825,3.825-5.1,8.925-2.55,14.025
			c2.55,5.1,6.375,7.65,11.475,7.65h24.225v73.95h-20.4c-6.375,0-10.2,5.1-10.2,10.199v15.301h-26.775v-15.301
			c0-6.375-5.1-10.199-10.2-10.199h-11.475c-6.375,0-10.2,5.1-10.2,10.199v15.301h-25.5v-15.301c0-6.375-5.1-10.199-10.2-10.199
			h-10.2c-6.375,0-10.2,5.1-10.2,10.199v73.95c0,6.375,5.1,10.2,10.2,10.2h24.225V566.1c0,6.375,5.1,10.2,10.2,10.2h131.325V457.725
			c0-25.5,20.4-45.899,45.9-45.899h47.175c25.5,0,45.9,20.399,45.9,45.899V576.3h130.05c6.375,0,10.2-5.1,10.2-10.2V429.675h24.225
			c6.375,0,10.2-5.1,10.2-10.2v-73.95C534.126,339.149,529.025,335.325,523.926,335.325z"/>
	</g>
</g>
<g>
</g>
<g>
</g>
<g>
</g>
<g>
</g>
<g>
</g>
<g>
</g>
<g>
</g>
<g>
</g>
<g>
</g>
<g>
</g>
<g>
</g>
<g>
</g>
<g>
</g>
<g>
</g>
<g>
</g>
</svg>
